<svg xmlns="http://www.w3.org/2000/svg" viewBox="0 0 1600 1200" width="1600" height="1200" role="img"><rect width="1600" height="1200" fill="#F4F2ED"/><clipPath id="flat"><polygon points="224.0,268.88000000000005 1376.0,268.88000000000005 1376.0,729.6800000000001 1099.52,729.6800000000001 1099.52,983.1199999999999 224.0,983.1199999999999"/></clipPath><g clip-path="url(#flat)"><path d="M 759.2 604.6 L -288.2 -621.8 A 1612.8 1612.8 0 0 1 885.8 -1003.3 Z" fill="#B2E0B2" opacity="0.8"/><path d="M 759.2 604.6 L 885.8 -1003.3 A 1612.8 1612.8 0 0 1 1985.6 -442.9 Z" fill="#FFE4B2" opacity="0.8"/><path d="M 759.2 604.6 L 1985.6 -442.9 A 1612.8 1612.8 0 0 1 2367.0 731.1 Z" fill="#FFFFB2" opacity="0.8"/><path d="M 759.2 604.6 L 2367.0 731.1 A 1612.8 1612.8 0 0 1 1806.6 1831.0 Z" fill="#FFECEF" opacity="0.8"/><path d="M 759.2 604.6 L 1806.6 1831.0 A 1612.8 1612.8 0 0 1 632.7 2212.4 Z" fill="#FFB2B2" opacity="0.8"/><path d="M 759.2 604.6 L 632.7 2212.4 A 1612.8 1612.8 0 0 1 -467.2 1652.0 Z" fill="#B2B2B2" opacity="0.8"/><path d="M 759.2 604.6 L -467.2 1652.0 A 1612.8 1612.8 0 0 1 -848.6 478.0 Z" fill="#B2B2E0" opacity="0.8"/><path d="M 759.2 604.6 L -848.6 478.0 A 1612.8 1612.8 0 0 1 -288.2 -621.8 Z" fill="#B2FFFF" opacity="0.8"/></g><polygon points="224.0,268.88000000000005 569.5999999999999,268.88000000000005 569.5999999999999,591.44 224.0,591.44" fill="none" stroke="#422326" stroke-opacity="0.5" stroke-width="2" clip-path="url(#flat)"/><text x="397" y="430" text-anchor="middle" font-family="Manrope, system-ui, sans-serif" font-size="33" fill="#422326" opacity="0.85" font-weight="600">Кухня</text><polygon points="569.5999999999999,268.88000000000005 1376.0,268.88000000000005 1376.0,729.6800000000001 569.5999999999999,729.6800000000001" fill="none" stroke="#422326" stroke-opacity="0.5" stroke-width="2" clip-path="url(#flat)"/><text x="973" y="499" text-anchor="middle" font-family="Manrope, system-ui, sans-serif" font-size="33" fill="#422326" opacity="0.85" font-weight="600">Гостиная</text><polygon points="224.0,591.44 569.5999999999999,591.44 569.5999999999999,983.1199999999999 224.0,983.1199999999999" fill="none" stroke="#422326" stroke-opacity="0.5" stroke-width="2" clip-path="url(#flat)"/><text x="397" y="787" text-anchor="middle" font-family="Manrope, system-ui, sans-serif" font-size="33" fill="#422326" opacity="0.85" font-weight="600">Спальня</text><polygon points="569.5999999999999,729.6800000000001 846.0799999999999,729.6800000000001 846.0799999999999,983.1199999999999 569.5999999999999,983.1199999999999" fill="none" stroke="#422326" stroke-opacity="0.5" stroke-width="2" clip-path="url(#flat)"/><text x="708" y="856" text-anchor="middle" font-family="Manrope, system-ui, sans-serif" font-size="33" fill="#422326" opacity="0.85" font-weight="600">Детская</text><polygon points="846.0799999999999,729.6800000000001 1099.52,729.6800000000001 1099.52,983.1199999999999 846.0799999999999,983.1199999999999" fill="none" stroke="#422326" stroke-opacity="0.5" stroke-width="2" clip-path="url(#flat)"/><text x="973" y="856" text-anchor="middle" font-family="Manrope, system-ui, sans-serif" font-size="33" fill="#422326" opacity="0.85" font-weight="600">Прихожая</text><polygon points="224.0,268.88000000000005 1376.0,268.88000000000005 1376.0,729.6800000000001 1099.52,729.6800000000001 1099.52,983.1199999999999 224.0,983.1199999999999" fill="none" stroke="#422326" stroke-width="4"/><line x1="1443" y1="395" x2="1412" y2="300" stroke="#422326" stroke-width="3"/><polygon points="1412,300 1409,326 1430,319" fill="#422326"/><circle cx="1432" cy="361" r="80" fill="none" stroke="#422326" stroke-opacity="0.35" stroke-width="1.5"/><text x="1400" y="274" text-anchor="middle" font-family="Cormorant, Georgia, serif" font-size="40" fill="#422326" font-weight="700">С</text><text x="800" y="52" text-anchor="middle" font-family="Manrope, system-ui, sans-serif" font-size="22" letter-spacing="5" fill="#A08D5C" font-weight="600">ПЛАН КВАРТИРЫ · НАЛОЖЕНИЕ ВАСТУ-КАРТЫ</text></svg>